<?xml version="1.0" encoding="UTF-8" standalone="no"?>
<!-- Created with Inkscape (http://www.inkscape.org/) -->

<svg
   xmlns:dc="http://purl.org/dc/elements/1.1/"
   xmlns:cc="http://creativecommons.org/ns#"
   xmlns:rdf="http://www.w3.org/1999/02/22-rdf-syntax-ns#"
   xmlns:svg="http://www.w3.org/2000/svg"
   xmlns="http://www.w3.org/2000/svg"
   xmlns:sodipodi="http://sodipodi.sourceforge.net/DTD/sodipodi-0.dtd"
   xmlns:inkscape="http://www.inkscape.org/namespaces/inkscape"
   width="400"
   height="150"
   id="svg12610"
   version="1.1"
   inkscape:version="0.48.0 r9654"
   sodipodi:docname="magecomet.svg">
  <defs
     id="defs12612" />
  <sodipodi:namedview
     id="base"
     pagecolor="#ffffff"
     bordercolor="#666666"
     borderopacity="1.0"
     inkscape:pageopacity="0.0"
     inkscape:pageshadow="2"
     inkscape:zoom="0.49497475"
     inkscape:cx="284.09041"
     inkscape:cy="-12.147972"
     inkscape:document-units="px"
     inkscape:current-layer="layer1"
     showgrid="false"
     inkscape:window-width="1094"
     inkscape:window-height="604"
     inkscape:window-x="0"
     inkscape:window-y="24"
     inkscape:window-maximized="0" />
  <metadata
     id="metadata12615">
    <rdf:RDF>
      <cc:Work
         rdf:about="">
        <dc:format>image/svg+xml</dc:format>
        <dc:type
           rdf:resource="http://purl.org/dc/dcmitype/StillImage" />
        <dc:title />
      </cc:Work>
    </rdf:RDF>
  </metadata>
  <g
     inkscape:label="Layer 1"
     inkscape:groupmode="layer"
     id="layer1"
     transform="translate(0,-902.36218)"
     style="display:inline">
    <g
       style="font-size:75.07006073px;font-style:normal;font-variant:normal;font-weight:normal;font-stretch:normal;text-align:start;line-height:125%;letter-spacing:0px;word-spacing:0px;writing-mode:lr-tb;text-anchor:start;fill:#000000;fill-opacity:1;stroke:none;display:inline;font-family:Arial;-inkscape-font-specification:Arial"
       id="text49098">
      <path
         d="m 35.884239,960.59757 -4.765189,22.39639 2.712492,0 c 1.686127,10e-6 2.82244,0.2566 3.408943,0.76977 0.586466,0.51318 0.879708,1.24628 0.879727,2.19931 -1.9e-5,1.51509 -0.720906,2.77359 -2.162662,3.7755 -0.75756,0.51317 -1.99162,0.76976 -3.702186,0.76976 l -9.896932,0 c -1.661709,0 -2.798022,-0.25659 -3.408943,-0.76976 -0.586484,-0.53761 -0.879727,-1.27072 -0.879727,-2.19932 0,-1.22184 0.488737,-2.28484 1.466212,-3.18901 1.00191,-0.92859 2.358155,-1.38068 4.068738,-1.35625 l 6.231402,-29.39755 c -1.124106,-0.0977 -1.954959,-0.40317 -2.492561,-0.91638 -0.513182,-0.53757 -0.769769,-1.23402 -0.769761,-2.08935 -8e-6,-1.49061 0.708661,-2.73689 2.126008,-3.73885 0.781969,-0.53756 2.040466,-0.80637 3.775496,-0.80641 l 8.247443,0.0367 5.424985,22.61633 14.845398,-22.61633 8.320753,0 c 1.661655,5e-5 2.78575,0.25663 3.372288,0.76976 0.610867,0.51322 0.916328,1.24633 0.916383,2.19932 -5.5e-5,1.12414 -0.439918,2.12605 -1.319591,3.00574 -0.855343,0.87976 -2.04053,1.39294 -3.555564,1.53952 l -6.231402,29.39755 c 1.44173,10e-6 2.455859,0.26882 3.04239,0.80642 0.586438,0.51318 0.87968,1.23407 0.879727,2.16266 -4.7e-5,1.51509 -0.720934,2.77359 -2.162662,3.7755 -0.757588,0.51317 -2.003867,0.76976 -3.738841,0.76976 l -9.860277,0 c -1.661737,0 -2.79805,-0.25659 -3.408943,-0.76976 -0.586513,-0.53761 -0.879755,-1.27072 -0.879727,-2.19932 -2.8e-5,-1.49064 0.708641,-2.73692 2.126007,-3.73884 0.757513,-0.5376 2.01601,-0.80641 3.775496,-0.80642 l 2.712493,0 4.765189,-22.39639 -12.71939,19.354 -6.524644,0 -4.618568,-19.354"
         style="font-style:italic;font-variant:normal;font-weight:bold;font-stretch:normal;fill:#000000;font-family:Courier New;-inkscape-font-specification:Courier New Bold Italic"
         id="path12657" />
      <path
         d="m 93.029855,990.5083 0.366553,-1.75945 c -4.17873,1.97938 -8.601799,2.96907 -13.26922,2.96908 -3.470048,-10e-6 -6.231411,-0.87973 -8.284098,-2.63919 -2.052703,-1.75945 -3.079051,-3.76327 -3.079046,-6.01147 -5e-6,-1.83275 0.708664,-3.76326 2.126008,-5.79153 1.906067,-2.73692 4.520809,-4.86292 7.844235,-6.37803 3.347832,-1.51506 7.050014,-2.2726 11.106557,-2.27263 2.248163,3e-5 4.814032,0.2444 7.697613,0.73311 l 0.366553,-1.79611 c 0.04884,-0.24434 0.07328,-0.48871 0.07331,-0.73311 -3.4e-5,-0.90413 -0.354369,-1.60058 -1.063004,-2.08935 -0.928633,-0.65977 -2.651431,-0.98966 -5.168398,-0.98969 -2.297091,3e-5 -5.266168,0.43989 -8.907238,1.31959 -1.368483,0.3177 -2.443704,0.47654 -3.225667,0.47652 -0.806432,2e-5 -1.478445,-0.26878 -2.016042,-0.80642 -0.537624,-0.53758 -0.806429,-1.24625 -0.806416,-2.126 -1.3e-5,-1.22182 0.390976,-2.22373 1.172969,-3.00574 0.781965,-0.80638 2.920189,-1.56393 6.414678,-2.27263 3.518885,-0.73307 6.536836,-1.09962 9.05386,-1.09966 4.10536,4e-5 7.172187,0.85533 9.200477,2.56587 2.05266,1.68618 3.07901,3.75109 3.07905,6.19475 -4e-5,0.782 -0.0856,1.62508 -0.25659,2.52922 l -3.29897,15.46853 1.28293,0 c 1.6861,10e-6 2.82242,0.2566 3.40894,0.76977 0.58645,0.51318 0.87969,1.24628 0.87973,2.19931 -4e-5,1.51509 -0.72093,2.77359 -2.16266,3.7755 -0.75759,0.51317 -1.99165,0.76976 -3.70219,0.76976 l -8.833925,0 m 2.859114,-13.4525 c -2.859143,-0.58647 -5.571633,-0.87971 -8.137478,-0.87972 -3.323435,1e-5 -6.329166,0.89196 -9.017204,2.67583 -1.539536,1.00193 -2.309297,1.95496 -2.309284,2.85912 -1.3e-5,0.73311 0.525379,1.34403 1.576178,1.83276 1.075207,0.46431 2.44367,0.69646 4.105394,0.69645 1.734997,10e-6 3.824347,-0.34211 6.268056,-1.02634 2.468097,-0.70867 4.740724,-1.68614 6.817887,-2.93243 l 0.696451,-3.22567"
         style="font-style:italic;font-variant:normal;font-weight:bold;font-stretch:normal;fill:#000000;font-family:Courier New;-inkscape-font-specification:Courier New Bold Italic"
         id="path12659" />
      <path
         d="m 145.30032,958.6915 1.35624,-1.46621 8.79727,0 c 1.6861,3e-5 2.82241,0.26883 3.40895,0.80641 0.61087,0.51321 0.91633,1.24631 0.91638,2.19932 -5e-5,1.4418 -0.6965,2.66365 -2.08935,3.66553 -0.78203,0.56207 -2.05275,0.8431 -3.81215,0.84307 l -1.28294,0 -5.82819,27.34486 c -0.56209,2.5903 -1.60065,4.86293 -3.1157,6.81789 -1.49069,1.97933 -3.5556,3.68993 -6.19475,5.13173 -2.63921,1.4418 -5.38835,2.1627 -8.24744,2.1627 l -8.50403,0 c -1.66172,0 -2.79803,-0.2566 -3.40895,-0.7698 -0.58649,-0.5132 -0.87973,-1.2463 -0.87972,-2.1993 -1e-5,-1.5151 0.72088,-2.7736 2.16266,-3.77551 0.75753,-0.51318 1.99159,-0.76976 3.70219,-0.76976 l 8.28409,0 c 2.29705,0 4.21534,-0.62314 5.75489,-1.86942 1.53949,-1.22185 2.51696,-2.79802 2.93242,-4.72853 l 0.76976,-3.66553 c -1.88167,1.07522 -3.75108,1.88164 -5.60826,2.41925 -1.83279,0.53761 -3.65333,0.80641 -5.46164,0.80642 -4.39865,-1e-5 -7.94199,-1.29516 -10.63004,-3.88547 -2.66362,-2.61474 -3.99543,-5.90149 -3.99543,-9.86027 0,-3.54333 0.96525,-7.02558 2.89577,-10.44676 1.95494,-3.42114 4.70409,-6.15807 8.24745,-8.21079 3.56776,-2.0771 7.26994,-3.11567 11.10655,-3.1157 1.58837,3e-5 3.01793,0.19553 4.28867,0.58648 1.29512,0.36659 2.77355,1.02638 4.4353,1.97939 m -14.88206,25.40212 c 3.37227,10e-6 6.36578,-1.25849 8.98055,-3.77549 2.61471,-2.54143 3.92208,-5.40054 3.92212,-8.57734 -4e-5,-2.27261 -0.79423,-4.1909 -2.3826,-5.75489 -1.58842,-1.56393 -3.58003,-2.34591 -5.97481,-2.34594 -3.37231,3e-5 -6.36582,1.28296 -8.98055,3.84881 -2.61476,2.54146 -3.92213,5.35169 -3.92212,8.43072 -1e-5,2.34595 0.78197,4.3009 2.34594,5.86485 1.58838,1.53953 3.5922,2.30929 6.01147,2.30928"
         style="font-style:italic;font-variant:normal;font-weight:bold;font-stretch:normal;fill:#000000;font-family:Courier New;-inkscape-font-specification:Courier New Bold Italic"
         id="path12661" />
      <path
         d="m 197.93733,977.67894 -30.82711,0 c 0.3421,1.93053 1.36845,3.5067 3.07904,4.72854 1.71057,1.19741 4.27644,1.79611 7.69762,1.79611 2.83465,0 6.68345,-0.5987 11.54642,-1.79611 2.02822,-0.48873 3.42112,-0.7331 4.1787,-0.73311 0.80638,1e-5 1.47839,0.26882 2.01605,0.80642 0.53756,0.51318 0.80637,1.19741 0.80641,2.0527 -4e-5,1.24628 -0.56209,2.35816 -1.68614,3.33563 -1.0997,0.95304 -3.71444,1.83276 -7.84424,2.63918 -4.12986,0.80642 -7.85648,1.20962 -11.17986,1.20963 -5.22951,-10e-6 -9.27381,-1.30738 -12.13291,-3.92212 -2.83468,-2.63918 -4.25202,-5.99924 -4.25202,-10.08021 0,-3.39671 1.02635,-6.80565 3.07905,-10.22683 2.07712,-3.42113 5.02176,-6.14584 8.83393,-8.17413 3.83657,-2.05267 7.7709,-3.07901 11.80301,-3.07905 4.74071,4e-5 8.5773,1.30741 11.50976,3.92212 2.95682,2.61477 4.43525,6.26808 4.43529,10.95994 -4e-5,1.00193 -0.12223,2.12602 -0.36655,3.37228 l -0.69645,3.18901 m -6.74458,-7.51433 c -0.65983,-2.05268 -1.80836,-3.62885 -3.4456,-4.72854 -1.6373,-1.12407 -3.73887,-1.68611 -6.30471,-1.68614 -2.56589,3e-5 -4.88739,0.53764 -6.9645,1.61283 -2.07716,1.05081 -3.92214,2.65143 -5.53496,4.80185 l 22.24977,0"
         style="font-style:italic;font-variant:normal;font-weight:bold;font-stretch:normal;fill:#000000;font-family:Courier New;-inkscape-font-specification:Courier New Bold Italic"
         id="path12663" />
      <path
         d="m 193.52128,998.85891 c 0.61088,-0.63531 1.2218,-1.11183 1.83277,-1.42956 0.61087,-0.31763 1.22179,-0.47647 1.83276,-0.47651 0.87968,4e-5 1.60057,0.26885 2.16266,0.80641 0.562,0.53766 0.84303,1.18523 0.84308,1.94273 -5e-5,0.48882 -0.0978,1.23412 -0.29325,2.23602 l -1.35624,6.378 c -0.39104,1.8328 -1.0264,3.1279 -1.90608,3.8854 -0.85533,0.7576 -1.82059,1.1364 -2.89577,1.1364 -0.9042,0 -1.61287,-0.2566 -2.126,-0.7698 -0.53766,-0.4887 -0.80646,-1.1974 -0.80642,-2.126 l 0,-1.4662 c -4e-5,-1.2951 -0.64762,-2.4437 -1.94273,-3.4456 -1.97942,-1.4662 -4.44755,-2.1993 -7.40437,-2.1993 -2.24822,0 -4.4231,0.4887 -6.52465,1.4662 -2.10159,0.9775 -4.10541,2.5781 -6.01147,4.8018 -1.90609,2.2238 -3.17681,4.8263 -3.81215,7.8076 l -1.02635,4.8751 c -0.21994,0.9775 -0.32991,1.9428 -0.32989,2.8958 -2e-5,2.7614 1.06298,5.0829 3.18901,6.9645 2.12599,1.8817 5.21725,2.8225 9.27379,2.8225 2.76134,0 5.18058,-0.3666 7.25775,-1.0997 1.24624,-0.4398 2.66358,-1.3196 4.25201,-2.6392 0.953,-0.7819 1.66167,-1.2829 2.12601,-1.5028 0.4887,-0.2444 1.01409,-0.3666 1.57618,-0.3666 0.87968,0 1.61279,0.2933 2.19932,0.8798 0.58644,0.5864 0.87968,1.3073 0.87972,2.1626 -4e-5,1.7595 -1.46625,3.6655 -4.39863,5.7182 -4.20318,2.908 -9.43266,4.362 -15.68847,4.362 -3.78774,0 -7.12337,-0.7331 -10.0069,-2.1993 -2.88356,-1.4662 -4.99735,-3.3845 -6.34137,-5.7549 -1.31959,-2.3703 -1.97939,-5.1317 -1.97938,-8.2841 -10e-6,-1.1485 0.14661,-2.4192 0.43986,-3.8121 l 1.09966,-5.0951 c 1.31958,-6.207 4.41084,-11.3387 9.27379,-15.3952 4.86292,-4.08096 10.14128,-6.12143 15.83509,-6.12148 2.17485,5e-5 4.15423,0.25663 5.93816,0.76976 1.80829,0.48878 3.42112,1.24633 4.8385,2.27263"
         style="font-style:italic;font-variant:normal;font-weight:bold;font-stretch:normal;fill:#000000;font-family:Courier New;-inkscape-font-specification:Courier New Bold Italic"
         id="path12665" />
      <path
         d="m 221.99071,1022.6827 c -3.1035,0 -5.93817,-0.6231 -8.50403,-1.8694 -2.54144,-1.2707 -4.45974,-2.9813 -5.75488,-5.1317 -1.27072,-2.1505 -1.90608,-4.4964 -1.90608,-7.0378 0,-3.1524 1.07522,-6.488 3.22567,-10.00694 2.15043,-3.51889 5.14395,-6.30469 8.98055,-8.35741 3.83657,-2.05267 7.74646,-3.07901 11.7297,-3.07905 2.85908,4e-5 5.54713,0.65983 8.06416,1.97939 2.51696,1.31962 4.41082,3.09129 5.68158,5.31502 1.27067,2.19934 1.90603,4.61859 1.90607,7.25779 -4e-5,3.4211 -1.01417,6.769 -3.04239,10.0435 -2.00386,3.2501 -4.93628,5.8771 -8.79727,7.8809 -3.83662,2.0038 -7.69764,3.0057 -11.58308,3.0057 m 1.53953,-7.5143 c 3.83656,0 7.15997,-1.2218 9.97024,-3.6655 2.8102,-2.4681 4.21532,-5.0462 4.21536,-7.7343 -4e-5,-2.6147 -0.89199,-4.77739 -2.67584,-6.48799 -1.78392,-1.71055 -4.1543,-2.56584 -7.11113,-2.56587 -4.20316,3e-5 -7.8076,1.56398 -10.81331,4.69188 -2.39483,2.51698 -3.59224,5.03398 -3.59222,7.55098 -2e-5,2.126 0.91637,4.0321 2.74915,5.7182 1.85718,1.6618 4.27643,2.4926 7.25775,2.4926"
         style="font-style:italic;font-variant:normal;font-weight:bold;font-stretch:normal;fill:#000000;font-family:Courier New;-inkscape-font-specification:Courier New Bold Italic"
         id="path12667" />
      <path
         d="m 266.44184,966.07237 -0.25659,2.23598 c 1.58838,-1.22182 2.93241,-2.06489 4.03209,-2.52922 1.12407,-0.46427 2.2726,-0.69642 3.44559,-0.69645 2.39479,3e-5 4.41083,1.06304 6.04813,3.18901 1.51505,-1.07519 2.99348,-1.86939 4.43529,-2.38259 1.46618,-0.53758 2.90795,-0.80639 4.32533,-0.80642 2.56583,3e-5 4.58187,0.7087 6.04812,2.12601 1.4906,1.41737 2.23593,3.28678 2.23598,5.60826 -5e-5,0.68426 -0.0856,1.41736 -0.25659,2.19932 l -3.55557,16.82478 c 1.44173,10e-6 2.45586,0.26881 3.04239,0.80642 0.58644,0.51318 0.87968,1.23406 0.87973,2.16266 -5e-5,1.51509 -0.72093,2.77359 -2.16266,3.7755 -0.75759,0.51317 -2.00387,0.76976 -3.73884,0.76976 l -7.14779,0 5.05844,-23.71598 c 0.0977,-0.53759 0.14658,-1.01411 0.14662,-1.42956 -4e-5,-0.48871 -0.1711,-0.8797 -0.51318,-1.17297 -0.31772,-0.29322 -0.81867,-0.43984 -1.50287,-0.43986 -0.83089,2e-5 -1.62508,0.21995 -2.38259,0.65979 -1.07526,0.58651 -2.44372,1.73504 -4.10539,3.4456 l -3.22567,15.13864 c 1.44175,10e-6 2.45587,0.26881 3.04239,0.80642 0.58645,0.51318 0.87969,1.23406 0.87973,2.16266 -4e-5,1.51509 -0.72092,2.77359 -2.16267,3.7755 -0.75757,0.51317 -2.00385,0.76976 -3.73884,0.76976 l -7.14778,0 5.05843,-23.71598 c 0.0977,-0.51315 0.1466,-0.97745 0.14662,-1.39291 -2e-5,-0.48871 -0.17108,-0.8797 -0.51317,-1.17297 -0.34214,-0.31765 -0.8431,-0.47649 -1.50287,-0.47651 -0.90418,2e-5 -1.77169,0.23217 -2.60253,0.69645 -1.09967,0.61094 -2.43148,1.74726 -3.99542,3.40894 l -3.22567,15.13864 c 1.44176,10e-6 2.45589,0.26881 3.04239,0.80642 0.58647,0.51318 0.87971,1.23406 0.87973,2.16266 -2e-5,1.51509 -0.72091,2.77359 -2.16267,3.7755 -0.75755,0.51317 -2.00383,0.76976 -3.73884,0.76976 l -6.78123,0 c -1.66171,0 -2.79802,-0.25659 -3.40894,-0.76976 -0.58649,-0.53761 -0.87973,-1.27072 -0.87973,-2.19932 0,-1.22184 0.48874,-2.28484 1.46621,-3.18901 1.00191,-0.9286 2.35816,-1.38068 4.06874,-1.35625 l 3.88546,-18.25434 c -1.46622,2e-5 -2.49256,-0.26878 -3.07904,-0.80642 -0.58649,-0.53758 -0.87973,-1.25847 -0.87973,-2.16266 0,-1.46618 0.69645,-2.70024 2.08935,-3.70219 0.78198,-0.56201 2.05269,-0.84304 3.81216,-0.84307 l 6.59795,0"
         style="font-style:italic;font-variant:normal;font-weight:bold;font-stretch:normal;fill:#000000;font-family:Courier New;-inkscape-font-specification:Courier New Bold Italic"
         id="path12669" />
      <path
         d="m 340.38806,962.19653 -30.82711,0 c 0.3421,1.93053 1.36845,3.5067 3.07904,4.72854 1.71057,1.19741 4.27644,1.79611 7.69762,1.79611 2.83465,0 6.68345,-0.5987 11.54642,-1.79611 2.02822,-0.48873 3.42112,-0.7331 4.1787,-0.73311 0.80638,10e-6 1.47839,0.26881 2.01604,0.80642 0.53757,0.51318 0.80638,1.19741 0.80642,2.05269 -4e-5,1.24629 -0.56209,2.35817 -1.68614,3.33564 -1.0997,0.95304 -3.71444,1.83276 -7.84424,2.63918 -4.12986,0.80641 -7.85648,1.20962 -11.17987,1.20962 -5.2295,0 -9.2738,-1.30737 -12.1329,-3.92211 -2.83468,-2.63918 -4.25202,-5.99925 -4.25202,-10.08021 0,-3.39671 1.02635,-6.80565 3.07905,-10.22683 2.07712,-3.42114 5.02176,-6.14585 8.83393,-8.17413 3.83656,-2.05267 7.7709,-3.07902 11.80301,-3.07905 4.74071,3e-5 8.5773,1.30741 11.50976,3.92212 2.95682,2.61477 4.43525,6.26808 4.43529,10.95993 -4e-5,1.00193 -0.12223,2.12603 -0.36655,3.37229 l -0.69645,3.18901 m -6.74458,-7.51433 c -0.65983,-2.05268 -1.80836,-3.62886 -3.4456,-4.72854 -1.6373,-1.12407 -3.73887,-1.68612 -6.30471,-1.68614 -2.56589,2e-5 -4.88739,0.53763 -6.96451,1.61283 -2.07715,1.05081 -3.92213,2.65142 -5.53495,4.80185 l 22.24977,0"
         style="font-style:italic;font-variant:normal;font-weight:bold;font-stretch:normal;fill:#000000;font-family:Courier New;-inkscape-font-specification:Courier New Bold Italic"
         id="path12671" />
      <path
         d="m 362.13637,931.56303 -3.22566,15.06533 c -0.14665,0.75756 -0.21996,1.38069 -0.21993,1.86942 -3e-5,0.65981 0.29322,1.1852 0.87972,1.57618 0.97745,0.63537 2.59029,0.95304 4.8385,0.95304 3.861,0 7.59983,-0.81863 11.21653,-2.45591 1.39286,-0.63535 2.44364,-0.95302 3.15235,-0.95303 0.83081,10e-6 1.51504,0.28103 2.0527,0.84307 0.53757,0.53762 0.80637,1.24629 0.80642,2.12601 -5e-5,1.14853 -0.45213,2.15044 -1.35625,3.00573 -1.2952,1.22185 -3.87328,2.35816 -7.73427,3.40894 -3.83662,1.02635 -7.16003,1.53952 -9.97024,1.53953 -2.32153,-10e-6 -4.53306,-0.39099 -6.63461,-1.17297 -1.53954,-0.56205 -2.7736,-1.454 -3.70219,-2.67584 -0.92861,-1.22184 -1.39291,-2.62696 -1.3929,-4.21536 -1e-5,-0.80641 0.0855,-1.60061 0.25659,-2.3826 l 3.51891,-16.53154 -2.74915,0 c -1.66172,3e-5 -2.79803,-0.25656 -3.40894,-0.76976 -0.5865,-0.53758 -0.87974,-1.27069 -0.87973,-2.19932 -1e-5,-1.49062 0.70866,-2.73689 2.12601,-3.73884 0.75753,-0.53758 2.01602,-0.80638 3.77549,-0.80641 l 2.7125,0 1.46621,-6.78124 c 0.36653,-1.80828 0.97745,-3.09122 1.83276,-3.8488 0.87971,-0.78194 1.88162,-1.17293 3.00574,-1.17297 0.85526,4e-5 1.56393,0.28107 2.12601,0.84307 0.58645,0.53765 0.87969,1.17301 0.87972,1.90608 -3e-5,0.51321 -0.10999,1.27075 -0.3299,2.27262 l -1.46621,6.78124 13.89236,0 c 1.6861,3e-5 2.82242,0.26883 3.40895,0.80641 0.61087,0.51321 0.91633,1.24631 0.91638,2.19932 -5e-5,1.4418 -0.6965,2.66365 -2.08935,3.66553 -0.78203,0.56207 -2.05274,0.8431 -3.81216,0.84307 l -13.89236,0"
         style="font-style:italic;font-variant:normal;font-weight:bold;font-stretch:normal;fill:#000000;font-family:Courier New;-inkscape-font-specification:Courier New Bold Italic"
         id="path12673" />
    </g>
  </g>
</svg>
